<?xml version="1.0" encoding="UTF-8" standalone="no"?>
<!DOCTYPE svg PUBLIC "-//W3C//DTD SVG 1.1//EN" "http://www.w3.org/Graphics/SVG/1.1/DTD/svg11.dtd">
<svg width="100%" height="100%" viewBox="0 0 179 88" version="1.1" xmlns="http://www.w3.org/2000/svg" xmlnsXlink="http://www.w3.org/1999/xlink" xmlSpace="preserve" xmlnsSerif="http://www.serif.com/" style="fill-rule:evenodd;clip-rule:evenodd;stroke-linejoin:round;stroke-miterlimit:2;">
    <g transform="matrix(1,0,0,1,-1385.7,-653.48)">
        <path d="M1564,653.48L1385.7,653.48L1385.7,740.899L1564,740.899L1564,653.48ZM1530.93,723.304L1534.56,723.304L1534.56,716.653C1534.73,716.835 1534.9,717.001 1535.08,717.148C1535.26,717.296 1535.45,717.431 1535.65,717.553C1535.99,717.744 1536.36,717.89 1536.76,717.99C1537.15,718.09 1537.59,718.14 1538.06,718.14C1538.94,718.14 1539.73,717.957 1540.41,717.592C1541.1,717.227 1541.68,716.722 1542.15,716.079C1542.61,715.444 1542.96,714.688 1543.2,713.81C1543.44,712.932 1543.56,711.98 1543.56,710.954L1543.56,710.68C1543.56,709.611 1543.44,708.635 1543.2,707.753C1542.96,706.87 1542.61,706.112 1542.14,705.477C1541.67,704.851 1541.09,704.366 1540.4,704.023C1539.72,703.68 1538.92,703.508 1538.03,703.508C1537.59,703.508 1537.19,703.554 1536.81,703.645C1536.43,703.736 1536.09,703.864 1535.77,704.03C1535.51,704.169 1535.27,704.332 1535.04,704.519C1534.82,704.705 1534.61,704.916 1534.42,705.151L1534.29,703.769L1530.93,703.769L1530.93,723.304ZM1419.86,675.702L1419.86,702.407C1419.86,712.12 1427.74,720.006 1437.45,720.006L1437.45,716.3C1429.79,716.3 1423.56,710.075 1423.56,702.407L1423.56,675.702L1435,687.69L1437.68,685.132L1421.67,668.433L1405.74,685.132L1408.42,687.69L1419.86,675.702ZM1474.79,710.693L1474.79,710.967C1474.79,712.002 1474.94,712.956 1475.23,713.83C1475.53,714.703 1475.96,715.462 1476.54,716.105C1477.1,716.749 1477.8,717.251 1478.63,717.611C1479.46,717.972 1480.4,718.153 1481.46,718.153C1482.52,718.153 1483.46,717.972 1484.28,717.611C1485.11,717.251 1485.8,716.749 1486.37,716.105C1486.93,715.462 1487.36,714.703 1487.66,713.83C1487.95,712.956 1488.1,712.002 1488.1,710.967L1488.1,710.693C1488.1,709.667 1487.95,708.718 1487.66,707.844C1487.36,706.97 1486.93,706.212 1486.37,705.568C1485.79,704.925 1485.09,704.421 1484.27,704.056C1483.44,703.69 1482.5,703.508 1481.44,703.508C1480.38,703.508 1479.44,703.69 1478.62,704.056C1477.79,704.421 1477.1,704.925 1476.54,705.568C1475.96,706.212 1475.53,706.97 1475.23,707.844C1474.94,708.718 1474.79,709.667 1474.79,710.693ZM1514.36,710.693L1514.36,710.967C1514.36,712.002 1514.51,712.956 1514.8,713.83C1515.1,714.703 1515.53,715.462 1516.11,716.105C1516.67,716.749 1517.37,717.251 1518.2,717.611C1519.03,717.972 1519.98,718.153 1521.04,718.153C1522.09,718.153 1523.03,717.972 1523.85,717.611C1524.68,717.251 1525.38,716.749 1525.94,716.105C1526.51,715.462 1526.93,714.703 1527.23,713.83C1527.53,712.956 1527.67,712.002 1527.67,710.967L1527.67,710.693C1527.67,709.667 1527.53,708.718 1527.23,707.844C1526.93,706.97 1526.51,706.212 1525.94,705.568C1525.37,704.925 1524.67,704.421 1523.84,704.056C1523.02,703.69 1522.07,703.508 1521.01,703.508C1519.95,703.508 1519.01,703.69 1518.19,704.056C1517.37,704.421 1516.67,704.925 1516.11,705.568C1515.53,706.212 1515.1,706.97 1514.8,707.844C1514.51,708.718 1514.36,709.667 1514.36,710.693ZM1465.91,700.313L1462.28,700.313L1462.28,703.769L1459.06,703.769L1459.06,706.442L1462.28,706.442L1462.28,712.858C1462.28,713.788 1462.4,714.586 1462.65,715.251C1462.89,715.916 1463.24,716.462 1463.69,716.888C1464.13,717.322 1464.67,717.642 1465.3,717.846C1465.93,718.05 1466.63,718.153 1467.41,718.153C1467.81,718.153 1468.21,718.133 1468.63,718.094C1469.04,718.055 1469.44,718 1469.82,717.931C1470.2,717.861 1470.56,717.772 1470.9,717.664C1471.24,717.555 1471.54,717.427 1471.79,717.279L1471.44,714.788C1471.27,714.832 1471.07,714.875 1470.84,714.918C1470.61,714.962 1470.37,715.001 1470.11,715.036C1469.84,715.079 1469.56,715.114 1469.27,715.14C1468.97,715.166 1468.69,715.179 1468.41,715.179C1468.03,715.179 1467.68,715.136 1467.37,715.049C1467.07,714.962 1466.8,714.814 1466.59,714.606C1466.37,714.406 1466.2,714.134 1466.08,713.79C1465.97,713.447 1465.91,713.019 1465.91,712.506L1465.91,706.442L1471.18,706.442L1471.18,703.769L1465.91,703.769L1465.91,700.313ZM1505.48,700.313L1501.85,700.313L1501.85,703.769L1498.63,703.769L1498.63,706.442L1501.85,706.442L1501.85,712.858C1501.85,713.788 1501.98,714.586 1502.22,715.251C1502.46,715.916 1502.81,716.462 1503.26,716.888C1503.71,717.322 1504.24,717.642 1504.87,717.846C1505.5,718.05 1506.2,718.153 1506.98,718.153C1507.38,718.153 1507.79,718.133 1508.2,718.094C1508.61,718.055 1509.01,718 1509.39,717.931C1509.77,717.861 1510.13,717.772 1510.47,717.664C1510.81,717.555 1511.11,717.427 1511.36,717.279L1511.01,714.788C1510.84,714.832 1510.64,714.875 1510.41,714.918C1510.18,714.962 1509.94,715.001 1509.68,715.036C1509.41,715.079 1509.13,715.114 1508.84,715.14C1508.55,715.166 1508.26,715.179 1507.98,715.179C1507.6,715.179 1507.26,715.136 1506.95,715.049C1506.64,714.962 1506.38,714.814 1506.16,714.606C1505.94,714.406 1505.77,714.134 1505.65,713.79C1505.54,713.447 1505.48,713.019 1505.48,712.506L1505.48,706.442L1510.75,706.442L1510.75,703.769L1505.48,703.769L1505.48,700.313ZM1478.41,710.967L1478.41,710.693C1478.41,710.12 1478.47,709.576 1478.58,709.063C1478.7,708.55 1478.87,708.098 1479.12,707.707C1479.36,707.316 1479.67,707.007 1480.06,706.781C1480.44,706.555 1480.9,706.442 1481.44,706.442C1481.99,706.442 1482.45,706.555 1482.83,706.781C1483.22,707.007 1483.53,707.316 1483.77,707.707C1484.01,708.098 1484.18,708.55 1484.3,709.063C1484.41,709.576 1484.46,710.12 1484.46,710.693L1484.46,710.967C1484.46,711.558 1484.41,712.113 1484.3,712.63C1484.18,713.147 1484.01,713.597 1483.77,713.98C1483.53,714.371 1483.22,714.679 1482.83,714.905C1482.45,715.131 1482,715.245 1481.46,715.245C1480.92,715.245 1480.45,715.131 1480.06,714.905C1479.68,714.679 1479.36,714.371 1479.12,713.98C1478.87,713.597 1478.7,713.147 1478.58,712.63C1478.47,712.113 1478.41,711.558 1478.41,710.967ZM1517.99,710.967L1517.99,710.693C1517.99,710.12 1518.04,709.576 1518.15,709.063C1518.27,708.55 1518.45,708.098 1518.69,707.707C1518.93,707.316 1519.25,707.007 1519.63,706.781C1520.01,706.555 1520.47,706.442 1521.01,706.442C1521.56,706.442 1522.02,706.555 1522.41,706.781C1522.79,707.007 1523.1,707.316 1523.35,707.707C1523.58,708.098 1523.75,708.55 1523.87,709.063C1523.98,709.576 1524.04,710.12 1524.04,710.693L1524.04,710.967C1524.04,711.558 1523.98,712.113 1523.87,712.63C1523.75,713.147 1523.58,713.597 1523.35,713.98C1523.1,714.371 1522.79,714.679 1522.41,714.905C1522.02,715.131 1521.57,715.245 1521.04,715.245C1520.49,715.245 1520.02,715.131 1519.63,714.905C1519.25,714.679 1518.93,714.371 1518.69,713.98C1518.45,713.597 1518.27,713.147 1518.15,712.63C1518.04,712.113 1517.99,711.558 1517.99,710.967ZM1539.93,710.68L1539.93,710.954C1539.93,711.537 1539.88,712.086 1539.78,712.604C1539.67,713.121 1539.51,713.575 1539.28,713.967C1539.06,714.358 1538.76,714.666 1538.4,714.892C1538.04,715.118 1537.6,715.231 1537.09,715.231C1536.77,715.231 1536.48,715.199 1536.22,715.134C1535.95,715.068 1535.73,714.975 1535.53,714.853C1535.32,714.723 1535.13,714.566 1534.97,714.384C1534.81,714.201 1534.67,713.997 1534.56,713.771L1534.56,707.877C1534.68,707.633 1534.83,707.42 1535,707.238C1535.17,707.055 1535.36,706.903 1535.59,706.781C1535.79,706.677 1536.01,706.596 1536.26,706.54C1536.5,706.483 1536.77,706.455 1537.06,706.455C1537.58,706.455 1538.01,706.564 1538.37,706.781C1538.74,706.998 1539.03,707.294 1539.27,707.668C1539.49,708.05 1539.66,708.5 1539.77,709.018C1539.88,709.535 1539.93,710.089 1539.93,710.68ZM1497.56,688.471C1496.98,688.471 1496.49,688.354 1496.12,688.119C1495.74,687.885 1495.44,687.572 1495.22,687.18C1495,686.798 1494.84,686.352 1494.75,685.844C1494.67,685.335 1494.62,684.807 1494.62,684.259L1494.62,683.868C1494.62,683.329 1494.67,682.807 1494.76,682.303C1494.85,681.799 1495.01,681.351 1495.24,680.96C1495.45,680.569 1495.75,680.256 1496.12,680.021C1496.5,679.786 1496.97,679.669 1497.54,679.669C1497.93,679.669 1498.3,679.736 1498.63,679.871C1498.96,680.006 1499.24,680.186 1499.47,680.412C1499.71,680.638 1499.89,680.908 1500.01,681.221C1500.13,681.534 1500.18,681.864 1500.16,682.212L1503.58,682.212C1503.6,681.377 1503.46,680.623 1503.16,679.949C1502.87,679.276 1502.46,678.7 1501.93,678.221C1501.39,677.752 1500.75,677.387 1500.01,677.126C1499.27,676.865 1498.47,676.735 1497.6,676.735C1496.51,676.735 1495.56,676.922 1494.73,677.296C1493.91,677.669 1493.22,678.178 1492.67,678.821C1492.11,679.465 1491.69,680.219 1491.41,681.084C1491.14,681.949 1491,682.877 1491,683.868L1491,684.259C1491,685.25 1491.14,686.178 1491.42,687.043C1491.7,687.908 1492.12,688.663 1492.68,689.306C1493.23,689.949 1493.91,690.456 1494.74,690.825C1495.57,691.195 1496.53,691.379 1497.62,691.379C1498.43,691.379 1499.2,691.251 1499.92,690.995C1500.65,690.738 1501.29,690.384 1501.83,689.932C1502.38,689.48 1502.82,688.941 1503.13,688.315C1503.45,687.689 1503.6,687.011 1503.58,686.281L1500.16,686.281C1500.18,686.611 1500.12,686.911 1499.99,687.18C1499.85,687.45 1499.66,687.68 1499.42,687.871C1499.18,688.063 1498.9,688.211 1498.57,688.315C1498.25,688.419 1497.91,688.471 1497.56,688.471ZM1484.1,691.106L1487.78,691.106L1487.78,690.884C1487.59,690.527 1487.45,690.101 1487.36,689.606C1487.26,689.11 1487.22,688.484 1487.22,687.728L1487.22,681.677C1487.22,680.86 1487.06,680.141 1486.76,679.519C1486.45,678.897 1486.03,678.382 1485.49,677.974C1484.95,677.565 1484.32,677.256 1483.58,677.048C1482.85,676.839 1482.06,676.735 1481.2,676.735C1480.26,676.735 1479.41,676.854 1478.68,677.093C1477.95,677.332 1477.33,677.656 1476.82,678.065C1476.31,678.474 1475.92,678.947 1475.65,679.486C1475.39,680.025 1475.26,680.595 1475.26,681.195L1478.88,681.195C1478.88,680.943 1478.92,680.712 1478.99,680.504C1479.07,680.295 1479.18,680.117 1479.34,679.969C1479.51,679.804 1479.74,679.675 1480.02,679.584C1480.3,679.493 1480.63,679.447 1481.01,679.447C1481.44,679.447 1481.82,679.502 1482.15,679.61C1482.48,679.719 1482.75,679.873 1482.96,680.073C1483.17,680.264 1483.33,680.493 1483.43,680.758C1483.54,681.023 1483.59,681.321 1483.59,681.651L1483.59,682.486L1481.57,682.486C1480.53,682.486 1479.6,682.579 1478.8,682.766C1477.99,682.953 1477.32,683.225 1476.77,683.581C1476.16,683.972 1475.7,684.47 1475.4,685.074C1475.1,685.678 1474.94,686.372 1474.94,687.154C1474.94,687.763 1475.07,688.326 1475.31,688.843C1475.55,689.36 1475.89,689.806 1476.33,690.18C1476.76,690.554 1477.28,690.845 1477.88,691.053C1478.49,691.262 1479.15,691.366 1479.87,691.366C1480.32,691.366 1480.73,691.325 1481.11,691.242C1481.5,691.16 1481.85,691.045 1482.17,690.897C1482.48,690.758 1482.77,690.593 1483.03,690.401C1483.29,690.21 1483.52,690.006 1483.72,689.788C1483.76,690.041 1483.82,690.28 1483.88,690.506C1483.94,690.732 1484.01,690.932 1484.1,691.106ZM1459.1,691.106L1466.03,691.106C1467.07,691.106 1468.01,690.988 1468.84,690.753C1469.68,690.519 1470.38,690.167 1470.97,689.697C1471.55,689.228 1472,688.645 1472.31,687.95C1472.62,687.254 1472.78,686.45 1472.78,685.537C1472.78,685.059 1472.72,684.596 1472.59,684.148C1472.46,683.701 1472.27,683.286 1472.01,682.903C1471.76,682.547 1471.45,682.234 1471.08,681.964C1470.71,681.695 1470.21,681.473 1469.59,681.299L1469.59,681.286C1469.91,681.164 1470.2,681.016 1470.46,680.843C1470.73,680.669 1470.97,680.477 1471.18,680.269C1471.56,679.886 1471.85,679.441 1472.04,678.932C1472.24,678.424 1472.34,677.882 1472.35,677.309C1472.35,676.422 1472.19,675.652 1471.86,675C1471.53,674.348 1471.07,673.809 1470.47,673.383C1469.87,672.957 1469.15,672.64 1468.3,672.431C1467.45,672.223 1466.51,672.118 1465.48,672.118L1459.1,672.118L1459.1,691.106ZM1512.64,685.276L1516.65,691.106L1521.1,691.106L1515.03,682.877L1520.35,676.996L1516,676.996L1512.1,681.273L1511,682.525L1511,671.075L1507.38,671.075L1507.38,691.106L1511,691.106L1511,686.802L1512.64,685.276ZM1480.64,688.563C1480.3,688.563 1480.01,688.521 1479.75,688.439C1479.49,688.356 1479.28,688.245 1479.1,688.106C1478.93,687.958 1478.8,687.778 1478.71,687.565C1478.62,687.352 1478.57,687.119 1478.57,686.867C1478.57,686.546 1478.63,686.248 1478.75,685.974C1478.87,685.7 1479.06,685.463 1479.31,685.263C1479.57,685.072 1479.89,684.922 1480.29,684.813C1480.69,684.705 1481.17,684.65 1481.74,684.65L1483.59,684.65L1483.59,687.076C1483.49,687.259 1483.34,687.439 1483.16,687.617C1482.98,687.795 1482.76,687.954 1482.51,688.093C1482.26,688.232 1481.97,688.345 1481.66,688.432C1481.35,688.519 1481.01,688.563 1480.64,688.563ZM1462.78,682.733L1466.19,682.733C1466.71,682.742 1467.15,682.812 1467.52,682.942C1467.9,683.073 1468.2,683.259 1468.44,683.503C1468.67,683.738 1468.84,684.024 1468.95,684.364C1469.06,684.703 1469.12,685.085 1469.12,685.511C1469.12,685.92 1469.04,686.289 1468.9,686.62C1468.76,686.95 1468.55,687.232 1468.27,687.467C1468.02,687.676 1467.7,687.841 1467.32,687.963C1466.94,688.084 1466.52,688.145 1466.04,688.145L1462.78,688.145L1462.78,682.733ZM1462.78,680.086L1462.78,675.105L1465.49,675.105C1466.08,675.113 1466.6,675.179 1467.04,675.3C1467.47,675.422 1467.82,675.618 1468.09,675.887C1468.29,676.078 1468.43,676.317 1468.54,676.604C1468.63,676.891 1468.68,677.226 1468.68,677.608C1468.68,677.974 1468.63,678.3 1468.51,678.587C1468.39,678.873 1468.22,679.117 1468.01,679.317C1467.75,679.569 1467.4,679.758 1466.98,679.884C1466.55,680.01 1466.06,680.078 1465.5,680.086L1462.78,680.086Z" style="fill:rgb(186,97,73);"/>
    </g>
</svg>
