<?xml version="1.0" encoding="UTF-8" standalone="no"?>
<!DOCTYPE svg PUBLIC "-//W3C//DTD SVG 1.1//EN" "http://www.w3.org/Graphics/SVG/1.1/DTD/svg11.dtd">
<svg width="100%" height="100%" viewBox="0 0 420 343" version="1.1" xmlns="http://www.w3.org/2000/svg" xmlnsXlink="http://www.w3.org/1999/xlink" xmlSpace="preserve" xmlnsSerif="http://www.serif.com/" style="fill-rule:evenodd;clip-rule:evenodd;stroke-linejoin:round;stroke-miterlimit:2;">
    <g>
        <g transform="matrix(12.1243,0,0,12.1243,-9.16424,340.761)">
            <path d="M3.152,-2.689L5.057,0L6.926,0L4.154,-3.697L6.58,-6.34L4.758,-6.34L2.936,-4.383L2.396,-3.779L2.396,-9L0.885,-9L0.885,0L2.396,0L2.396,-1.986L3.152,-2.689Z" style="fill:rgb(186,97,73);fill-rule:nonzero;"/>
        </g>
        <g transform="matrix(12.1243,0,0,12.1243,-9.16424,340.761)">
            <path d="M7.828,-3.229L7.828,-3.105C7.828,-2.641 7.895,-2.212 8.027,-1.819C8.16,-1.427 8.355,-1.086 8.613,-0.797C8.863,-0.508 9.173,-0.282 9.542,-0.12C9.911,0.042 10.332,0.123 10.805,0.123C11.273,0.123 11.691,0.042 12.059,-0.12C12.426,-0.282 12.736,-0.508 12.99,-0.797C13.24,-1.086 13.432,-1.427 13.564,-1.819C13.697,-2.212 13.764,-2.641 13.764,-3.105L13.764,-3.229C13.764,-3.689 13.697,-4.116 13.564,-4.509C13.432,-4.901 13.24,-5.242 12.99,-5.531C12.732,-5.82 12.42,-6.047 12.053,-6.211C11.686,-6.375 11.266,-6.457 10.793,-6.457C10.324,-6.457 9.906,-6.375 9.539,-6.211C9.172,-6.047 8.863,-5.82 8.613,-5.531C8.355,-5.242 8.16,-4.901 8.027,-4.509C7.895,-4.116 7.828,-3.689 7.828,-3.229ZM9.34,-3.105L9.34,-3.229C9.34,-3.498 9.368,-3.753 9.425,-3.993C9.481,-4.233 9.568,-4.445 9.686,-4.629C9.803,-4.816 9.953,-4.963 10.137,-5.068C10.32,-5.174 10.539,-5.227 10.793,-5.227C11.051,-5.227 11.271,-5.174 11.455,-5.068C11.639,-4.963 11.789,-4.816 11.906,-4.629C12.02,-4.445 12.104,-4.233 12.161,-3.993C12.218,-3.753 12.246,-3.498 12.246,-3.229L12.246,-3.105C12.246,-2.828 12.218,-2.568 12.161,-2.326C12.104,-2.084 12.02,-1.873 11.906,-1.693C11.789,-1.506 11.639,-1.359 11.455,-1.254C11.271,-1.148 11.055,-1.096 10.805,-1.096C10.547,-1.096 10.325,-1.148 10.14,-1.254C9.954,-1.359 9.803,-1.506 9.686,-1.693C9.568,-1.873 9.481,-2.084 9.425,-2.326C9.368,-2.568 9.34,-2.828 9.34,-3.105Z" style="fill:rgb(186,97,73);fill-rule:nonzero;"/>
        </g>
        <g transform="matrix(12.1243,0,0,12.1243,-9.16424,340.761)">
            <path d="M19.383,-1.729C19.383,-1.631 19.359,-1.54 19.313,-1.456C19.266,-1.372 19.197,-1.297 19.107,-1.23C19.002,-1.156 18.864,-1.098 18.694,-1.055C18.524,-1.012 18.324,-0.99 18.094,-0.99C17.918,-0.99 17.745,-1.008 17.575,-1.043C17.405,-1.078 17.252,-1.137 17.115,-1.219C16.982,-1.297 16.873,-1.4 16.787,-1.529C16.701,-1.658 16.65,-1.814 16.635,-1.998L15.182,-1.998C15.182,-1.736 15.245,-1.479 15.372,-1.225C15.499,-0.971 15.684,-0.746 15.926,-0.551C16.168,-0.348 16.469,-0.185 16.828,-0.062C17.188,0.062 17.602,0.123 18.07,0.123C18.488,0.123 18.87,0.075 19.216,-0.021C19.562,-0.116 19.855,-0.248 20.098,-0.416C20.34,-0.588 20.527,-0.791 20.66,-1.025C20.793,-1.26 20.859,-1.518 20.859,-1.799C20.859,-2.096 20.795,-2.352 20.666,-2.566C20.537,-2.781 20.355,-2.967 20.121,-3.123C19.891,-3.275 19.613,-3.401 19.289,-3.501C18.965,-3.601 18.611,-3.684 18.229,-3.75C17.955,-3.793 17.73,-3.842 17.555,-3.896C17.379,-3.951 17.24,-4.014 17.139,-4.084C17.033,-4.15 16.96,-4.226 16.919,-4.31C16.878,-4.394 16.857,-4.484 16.857,-4.582C16.857,-4.684 16.882,-4.779 16.931,-4.869C16.979,-4.959 17.049,-5.037 17.139,-5.104C17.236,-5.178 17.362,-5.235 17.517,-5.276C17.671,-5.317 17.852,-5.338 18.059,-5.338C18.289,-5.338 18.488,-5.309 18.656,-5.25C18.824,-5.191 18.961,-5.113 19.066,-5.016C19.148,-4.934 19.211,-4.843 19.254,-4.743C19.297,-4.644 19.318,-4.537 19.318,-4.424L20.83,-4.424C20.83,-4.713 20.767,-4.981 20.64,-5.229C20.513,-5.478 20.33,-5.693 20.092,-5.877C19.854,-6.057 19.563,-6.198 19.219,-6.302C18.875,-6.405 18.488,-6.457 18.059,-6.457C17.648,-6.457 17.278,-6.405 16.948,-6.302C16.618,-6.198 16.338,-6.057 16.107,-5.877C15.877,-5.701 15.7,-5.496 15.577,-5.262C15.454,-5.027 15.393,-4.779 15.393,-4.518C15.393,-4.248 15.453,-4.011 15.574,-3.806C15.695,-3.601 15.865,-3.422 16.084,-3.27C16.299,-3.113 16.559,-2.979 16.863,-2.868C17.168,-2.757 17.506,-2.664 17.877,-2.59C18.17,-2.535 18.413,-2.479 18.606,-2.42C18.8,-2.361 18.955,-2.299 19.072,-2.232C19.189,-2.162 19.271,-2.087 19.315,-2.007C19.36,-1.927 19.383,-1.834 19.383,-1.729Z" style="fill:rgb(186,97,73);fill-rule:nonzero;"/>
        </g>
        <g transform="matrix(12.1243,0,0,12.1243,-9.16424,340.761)">
            <path d="M24.756,-2.689L26.66,0L28.529,0L25.758,-3.697L28.184,-6.34L26.361,-6.34L24.539,-4.383L24,-3.779L24,-9L22.488,-9L22.488,0L24,0L24,-1.986L24.756,-2.689Z" style="fill:rgb(186,97,73);fill-rule:nonzero;"/>
        </g>
        <g transform="matrix(12.1243,0,0,12.1243,-9.16424,340.761)">
            <path d="M30.047,-6.34L30.047,-5.092L31.928,-5.092L31.928,-1.242L30.047,-1.242L30.047,0L35.25,0L35.25,-1.242L33.457,-1.242L33.457,-6.34L30.047,-6.34ZM31.805,-7.969C31.805,-7.836 31.834,-7.715 31.893,-7.605C31.951,-7.496 32.035,-7.412 32.145,-7.354C32.254,-7.291 32.366,-7.255 32.481,-7.245C32.597,-7.235 32.709,-7.25 32.818,-7.289C33.049,-7.309 33.228,-7.391 33.354,-7.535C33.481,-7.68 33.539,-7.857 33.527,-8.068C33.516,-8.283 33.435,-8.457 33.284,-8.59C33.134,-8.723 32.934,-8.789 32.684,-8.789C32.551,-8.789 32.431,-8.77 32.323,-8.73C32.216,-8.691 32.125,-8.637 32.051,-8.566C31.973,-8.492 31.912,-8.404 31.869,-8.303C31.826,-8.201 31.805,-8.09 31.805,-7.969Z" style="fill:rgb(186,97,73);fill-rule:nonzero;"/>
        </g>
        <g transform="matrix(12.1243,0,0,12.1243,-9.16424,218.185)">
            <path d="M4.98,-1.729C4.98,-1.631 4.957,-1.54 4.91,-1.456C4.863,-1.372 4.795,-1.297 4.705,-1.23C4.6,-1.156 4.462,-1.098 4.292,-1.055C4.122,-1.012 3.922,-0.99 3.691,-0.99C3.516,-0.99 3.343,-1.008 3.173,-1.043C3.003,-1.078 2.85,-1.137 2.713,-1.219C2.58,-1.297 2.471,-1.4 2.385,-1.529C2.299,-1.658 2.248,-1.814 2.232,-1.998L0.779,-1.998C0.779,-1.736 0.843,-1.479 0.97,-1.225C1.097,-0.971 1.281,-0.746 1.523,-0.551C1.766,-0.348 2.066,-0.185 2.426,-0.062C2.785,0.062 3.199,0.123 3.668,0.123C4.086,0.123 4.468,0.075 4.813,-0.021C5.159,-0.116 5.453,-0.248 5.695,-0.416C5.938,-0.588 6.125,-0.791 6.258,-1.025C6.391,-1.26 6.457,-1.518 6.457,-1.799C6.457,-2.096 6.393,-2.352 6.264,-2.566C6.135,-2.781 5.953,-2.967 5.719,-3.123C5.488,-3.275 5.211,-3.401 4.887,-3.501C4.563,-3.601 4.209,-3.684 3.826,-3.75C3.553,-3.793 3.328,-3.842 3.152,-3.896C2.977,-3.951 2.838,-4.014 2.736,-4.084C2.631,-4.15 2.558,-4.226 2.517,-4.31C2.476,-4.394 2.455,-4.484 2.455,-4.582C2.455,-4.684 2.479,-4.779 2.528,-4.869C2.577,-4.959 2.646,-5.037 2.736,-5.104C2.834,-5.178 2.96,-5.235 3.114,-5.276C3.269,-5.317 3.449,-5.338 3.656,-5.338C3.887,-5.338 4.086,-5.309 4.254,-5.25C4.422,-5.191 4.559,-5.113 4.664,-5.016C4.746,-4.934 4.809,-4.843 4.852,-4.743C4.895,-4.644 4.916,-4.537 4.916,-4.424L6.428,-4.424C6.428,-4.713 6.364,-4.981 6.237,-5.229C6.11,-5.478 5.928,-5.693 5.689,-5.877C5.451,-6.057 5.16,-6.198 4.816,-6.302C4.473,-6.405 4.086,-6.457 3.656,-6.457C3.246,-6.457 2.876,-6.405 2.546,-6.302C2.216,-6.198 1.936,-6.057 1.705,-5.877C1.475,-5.701 1.298,-5.496 1.175,-5.262C1.052,-5.027 0.99,-4.779 0.99,-4.518C0.99,-4.248 1.051,-4.011 1.172,-3.806C1.293,-3.601 1.463,-3.422 1.682,-3.27C1.896,-3.113 2.156,-2.979 2.461,-2.868C2.766,-2.757 3.104,-2.664 3.475,-2.59C3.768,-2.535 4.011,-2.479 4.204,-2.42C4.397,-2.361 4.553,-2.299 4.67,-2.232C4.787,-2.162 4.868,-2.087 4.913,-2.007C4.958,-1.927 4.98,-1.834 4.98,-1.729Z" style="fill:rgb(186,97,73);fill-rule:nonzero;"/>
        </g>
        <g transform="matrix(12.1243,0,0,12.1243,-9.16424,218.185)">
            <path d="M12.07,0L13.617,0L13.617,-0.1C13.535,-0.264 13.474,-0.458 13.433,-0.683C13.392,-0.907 13.371,-1.176 13.371,-1.488L13.371,-4.254C13.371,-4.621 13.303,-4.942 13.166,-5.218C13.029,-5.493 12.844,-5.723 12.609,-5.906C12.367,-6.09 12.084,-6.228 11.76,-6.319C11.436,-6.411 11.084,-6.457 10.705,-6.457C10.287,-6.457 9.915,-6.403 9.589,-6.296C9.263,-6.188 8.986,-6.043 8.76,-5.859C8.533,-5.676 8.36,-5.466 8.241,-5.229C8.122,-4.993 8.063,-4.744 8.063,-4.482L9.58,-4.482C9.58,-4.6 9.6,-4.708 9.639,-4.808C9.678,-4.907 9.738,-4.992 9.82,-5.063C9.906,-5.141 10.017,-5.201 10.151,-5.244C10.286,-5.287 10.443,-5.309 10.623,-5.309C10.826,-5.309 11.005,-5.283 11.159,-5.232C11.313,-5.182 11.443,-5.109 11.549,-5.016C11.65,-4.926 11.727,-4.818 11.777,-4.693C11.828,-4.568 11.854,-4.426 11.854,-4.266L11.854,-3.867L10.887,-3.867C10.426,-3.867 10.015,-3.825 9.653,-3.741C9.292,-3.657 8.988,-3.533 8.742,-3.369C8.473,-3.193 8.27,-2.971 8.133,-2.701C7.996,-2.432 7.928,-2.121 7.928,-1.77C7.928,-1.5 7.981,-1.249 8.089,-1.017C8.196,-0.784 8.348,-0.584 8.543,-0.416C8.734,-0.248 8.966,-0.117 9.237,-0.023C9.509,0.07 9.809,0.117 10.137,0.117C10.336,0.117 10.523,0.098 10.699,0.059C10.875,0.02 11.037,-0.033 11.186,-0.1C11.33,-0.166 11.463,-0.243 11.584,-0.331C11.705,-0.419 11.813,-0.514 11.906,-0.615C11.922,-0.498 11.943,-0.386 11.971,-0.278C11.998,-0.171 12.031,-0.078 12.07,0ZM10.441,-1.078C10.277,-1.078 10.133,-1.099 10.008,-1.14C9.883,-1.181 9.779,-1.234 9.697,-1.301C9.611,-1.375 9.547,-1.464 9.504,-1.567C9.461,-1.671 9.439,-1.783 9.439,-1.904C9.439,-2.053 9.468,-2.189 9.524,-2.314C9.581,-2.439 9.666,-2.547 9.779,-2.637C9.904,-2.734 10.066,-2.809 10.266,-2.859C10.465,-2.91 10.705,-2.936 10.986,-2.936L11.854,-2.936L11.854,-1.805C11.803,-1.715 11.733,-1.626 11.646,-1.538C11.558,-1.45 11.453,-1.373 11.332,-1.307C11.211,-1.236 11.076,-1.181 10.928,-1.14C10.779,-1.099 10.617,-1.078 10.441,-1.078Z" style="fill:rgb(186,97,73);fill-rule:nonzero;"/>
        </g>
        <g transform="matrix(12.1243,0,0,12.1243,-9.16424,218.185)">
            <path d="M19.271,0L20.818,0L20.818,-0.1C20.736,-0.264 20.675,-0.458 20.634,-0.683C20.593,-0.907 20.572,-1.176 20.572,-1.488L20.572,-4.254C20.572,-4.621 20.504,-4.942 20.367,-5.218C20.23,-5.493 20.045,-5.723 19.811,-5.906C19.568,-6.09 19.285,-6.228 18.961,-6.319C18.637,-6.411 18.285,-6.457 17.906,-6.457C17.488,-6.457 17.116,-6.403 16.79,-6.296C16.464,-6.188 16.188,-6.043 15.961,-5.859C15.734,-5.676 15.562,-5.466 15.442,-5.229C15.323,-4.993 15.264,-4.744 15.264,-4.482L16.781,-4.482C16.781,-4.6 16.801,-4.708 16.84,-4.808C16.879,-4.907 16.939,-4.992 17.021,-5.063C17.107,-5.141 17.218,-5.201 17.353,-5.244C17.487,-5.287 17.645,-5.309 17.824,-5.309C18.027,-5.309 18.206,-5.283 18.36,-5.232C18.515,-5.182 18.645,-5.109 18.75,-5.016C18.852,-4.926 18.928,-4.818 18.979,-4.693C19.029,-4.568 19.055,-4.426 19.055,-4.266L19.055,-3.867L18.088,-3.867C17.627,-3.867 17.216,-3.825 16.854,-3.741C16.493,-3.657 16.189,-3.533 15.943,-3.369C15.674,-3.193 15.471,-2.971 15.334,-2.701C15.197,-2.432 15.129,-2.121 15.129,-1.77C15.129,-1.5 15.183,-1.249 15.29,-1.017C15.397,-0.784 15.549,-0.584 15.744,-0.416C15.936,-0.248 16.167,-0.117 16.438,-0.023C16.71,0.07 17.01,0.117 17.338,0.117C17.537,0.117 17.725,0.098 17.9,0.059C18.076,0.02 18.238,-0.033 18.387,-0.1C18.531,-0.166 18.664,-0.243 18.785,-0.331C18.906,-0.419 19.014,-0.514 19.107,-0.615C19.123,-0.498 19.145,-0.386 19.172,-0.278C19.199,-0.171 19.232,-0.078 19.271,0ZM17.643,-1.078C17.479,-1.078 17.334,-1.099 17.209,-1.14C17.084,-1.181 16.98,-1.234 16.898,-1.301C16.813,-1.375 16.748,-1.464 16.705,-1.567C16.662,-1.671 16.641,-1.783 16.641,-1.904C16.641,-2.053 16.669,-2.189 16.726,-2.314C16.782,-2.439 16.867,-2.547 16.98,-2.637C17.105,-2.734 17.268,-2.809 17.467,-2.859C17.666,-2.91 17.906,-2.936 18.188,-2.936L19.055,-2.936L19.055,-1.805C19.004,-1.715 18.935,-1.626 18.847,-1.538C18.759,-1.45 18.654,-1.373 18.533,-1.307C18.412,-1.236 18.277,-1.181 18.129,-1.14C17.98,-1.099 17.818,-1.078 17.643,-1.078Z" style="fill:rgb(186,97,73);fill-rule:nonzero;"/>
        </g>
        <g transform="matrix(12.1243,0,0,12.1243,-9.16424,218.185)">
            <path d="M26.941,-6.457C26.508,-6.457 26.111,-6.354 25.752,-6.149C25.393,-5.944 25.084,-5.664 24.826,-5.309L24.814,-5.455L24.75,-6.34L23.338,-6.34L23.338,0L24.855,0L24.855,-3.861C24.926,-4.045 25.018,-4.206 25.131,-4.345C25.244,-4.483 25.379,-4.598 25.535,-4.688C25.672,-4.773 25.83,-4.838 26.01,-4.881C26.189,-4.924 26.391,-4.945 26.613,-4.945C26.816,-4.945 27.026,-4.933 27.243,-4.907C27.46,-4.882 27.676,-4.844 27.891,-4.793L28.113,-6.299C27.988,-6.342 27.82,-6.379 27.609,-6.41C27.398,-6.441 27.176,-6.457 26.941,-6.457Z" style="fill:rgb(186,97,73);fill-rule:nonzero;"/>
        </g>
        <g transform="matrix(12.1243,0,0,12.1243,-9.16424,218.185)">
            <path d="M30.047,-6.34L30.047,-5.092L31.928,-5.092L31.928,-1.242L30.047,-1.242L30.047,0L35.25,0L35.25,-1.242L33.457,-1.242L33.457,-6.34L30.047,-6.34ZM31.805,-7.969C31.805,-7.836 31.834,-7.715 31.893,-7.605C31.951,-7.496 32.035,-7.412 32.145,-7.354C32.254,-7.291 32.366,-7.255 32.481,-7.245C32.597,-7.235 32.709,-7.25 32.818,-7.289C33.049,-7.309 33.228,-7.391 33.354,-7.535C33.481,-7.68 33.539,-7.857 33.527,-8.068C33.516,-8.283 33.435,-8.457 33.284,-8.59C33.134,-8.723 32.934,-8.789 32.684,-8.789C32.551,-8.789 32.431,-8.77 32.323,-8.73C32.216,-8.691 32.125,-8.637 32.051,-8.566C31.973,-8.492 31.912,-8.404 31.869,-8.303C31.826,-8.201 31.805,-8.09 31.805,-7.969Z" style="fill:rgb(186,97,73);fill-rule:nonzero;"/>
        </g>
        <g transform="matrix(12.1243,0,0,12.1243,-9.16424,95.6206)">
            <path d="M3.768,-7.887L2.25,-7.887L2.25,-6.34L0.756,-6.34L0.756,-5.215L2.25,-5.215L2.25,-2.215C2.25,-1.801 2.304,-1.447 2.411,-1.154C2.519,-0.861 2.672,-0.621 2.871,-0.434C3.066,-0.242 3.302,-0.102 3.577,-0.012C3.853,0.078 4.156,0.123 4.488,0.123C4.668,0.123 4.849,0.114 5.03,0.097C5.212,0.079 5.387,0.055 5.555,0.023C5.723,-0.008 5.88,-0.047 6.026,-0.094C6.173,-0.141 6.301,-0.195 6.41,-0.258L6.252,-1.307C6.182,-1.287 6.095,-1.268 5.991,-1.248C5.888,-1.229 5.777,-1.211 5.66,-1.195C5.539,-1.176 5.413,-1.159 5.282,-1.146C5.151,-1.132 5.025,-1.125 4.904,-1.125C4.736,-1.125 4.582,-1.145 4.441,-1.184C4.301,-1.223 4.18,-1.291 4.078,-1.389C3.98,-1.479 3.904,-1.601 3.85,-1.755C3.795,-1.909 3.768,-2.104 3.768,-2.338L3.768,-5.215L6.141,-5.215L6.141,-6.34L3.768,-6.34L3.768,-7.887Z" style="fill:rgb(186,97,73);fill-rule:nonzero;"/>
        </g>
        <g transform="matrix(12.1243,0,0,12.1243,-9.16424,95.6206)">
            <path d="M11.086,0.117C11.699,0.117 12.228,-0.003 12.671,-0.243C13.114,-0.483 13.439,-0.754 13.646,-1.055L12.867,-1.857C12.676,-1.611 12.43,-1.424 12.129,-1.295C11.828,-1.166 11.512,-1.102 11.18,-1.102C10.938,-1.102 10.716,-1.141 10.515,-1.219C10.313,-1.297 10.135,-1.406 9.979,-1.547C9.83,-1.684 9.712,-1.838 9.624,-2.01C9.536,-2.182 9.467,-2.4 9.416,-2.666L9.416,-2.689L13.77,-2.689L13.77,-3.334C13.77,-3.795 13.707,-4.218 13.582,-4.603C13.457,-4.987 13.273,-5.316 13.031,-5.59C12.785,-5.863 12.485,-6.076 12.132,-6.229C11.778,-6.381 11.373,-6.457 10.916,-6.457C10.49,-6.457 10.093,-6.378 9.724,-6.22C9.354,-6.062 9.033,-5.84 8.76,-5.555C8.486,-5.266 8.272,-4.921 8.118,-4.521C7.964,-4.12 7.887,-3.674 7.887,-3.182L7.887,-2.947C7.887,-2.518 7.963,-2.116 8.115,-1.743C8.268,-1.37 8.484,-1.047 8.766,-0.773C9.047,-0.496 9.384,-0.278 9.776,-0.12C10.169,0.038 10.605,0.117 11.086,0.117ZM10.904,-5.227C11.127,-5.227 11.321,-5.19 11.487,-5.118C11.653,-5.046 11.795,-4.949 11.912,-4.828C12.025,-4.707 12.114,-4.563 12.179,-4.395C12.243,-4.227 12.275,-4.055 12.275,-3.879L12.275,-3.762L9.451,-3.762C9.49,-3.988 9.552,-4.191 9.636,-4.371C9.72,-4.551 9.824,-4.705 9.949,-4.834C10.07,-4.963 10.212,-5.061 10.374,-5.127C10.536,-5.193 10.713,-5.227 10.904,-5.227Z" style="fill:rgb(186,97,73);fill-rule:nonzero;"/>
        </g>
        <g transform="matrix(12.1243,0,0,12.1243,-9.16424,95.6206)">
            <path d="M15.287,2.438L16.799,2.438L16.799,-0.563C16.877,-0.48 16.957,-0.405 17.039,-0.337C17.121,-0.269 17.209,-0.207 17.303,-0.152C17.459,-0.066 17.629,-0 17.813,0.047C17.996,0.094 18.197,0.117 18.416,0.117C18.814,0.117 19.168,0.035 19.477,-0.129C19.785,-0.293 20.045,-0.52 20.256,-0.809C20.463,-1.094 20.621,-1.434 20.73,-1.828C20.84,-2.223 20.895,-2.648 20.895,-3.105L20.895,-3.234C20.895,-3.711 20.84,-4.147 20.73,-4.544C20.621,-4.94 20.461,-5.281 20.25,-5.566C20.039,-5.848 19.779,-6.066 19.471,-6.223C19.162,-6.379 18.807,-6.457 18.404,-6.457C18.201,-6.457 18.011,-6.436 17.833,-6.393C17.655,-6.35 17.494,-6.289 17.35,-6.211C17.232,-6.148 17.123,-6.075 17.021,-5.991C16.92,-5.907 16.826,-5.811 16.74,-5.701L16.682,-6.34L15.287,-6.34L15.287,2.438ZM19.377,-3.234L19.377,-3.111C19.377,-2.838 19.352,-2.58 19.301,-2.338C19.25,-2.096 19.17,-1.883 19.061,-1.699C18.951,-1.516 18.809,-1.37 18.633,-1.263C18.457,-1.155 18.248,-1.102 18.006,-1.102C17.854,-1.102 17.714,-1.118 17.587,-1.151C17.46,-1.185 17.35,-1.23 17.256,-1.289C17.158,-1.352 17.071,-1.426 16.995,-1.512C16.919,-1.598 16.854,-1.693 16.799,-1.799L16.799,-4.529C16.857,-4.646 16.928,-4.748 17.01,-4.834C17.092,-4.92 17.186,-4.994 17.291,-5.057C17.385,-5.107 17.49,-5.146 17.607,-5.174C17.725,-5.201 17.854,-5.215 17.994,-5.215C18.24,-5.215 18.45,-5.164 18.624,-5.063C18.798,-4.961 18.941,-4.82 19.055,-4.641C19.164,-4.461 19.245,-4.25 19.298,-4.008C19.351,-3.766 19.377,-3.508 19.377,-3.234Z" style="fill:rgb(186,97,73);fill-rule:nonzero;"/>
        </g>
        <g transform="matrix(12.1243,0,0,12.1243,-9.16424,95.6206)">
            <path d="M22.488,2.438L24,2.438L24,-0.563C24.078,-0.48 24.158,-0.405 24.24,-0.337C24.322,-0.269 24.41,-0.207 24.504,-0.152C24.66,-0.066 24.83,-0 25.014,0.047C25.197,0.094 25.398,0.117 25.617,0.117C26.016,0.117 26.369,0.035 26.678,-0.129C26.986,-0.293 27.246,-0.52 27.457,-0.809C27.664,-1.094 27.822,-1.434 27.932,-1.828C28.041,-2.223 28.096,-2.648 28.096,-3.105L28.096,-3.234C28.096,-3.711 28.041,-4.147 27.932,-4.544C27.822,-4.94 27.662,-5.281 27.451,-5.566C27.24,-5.848 26.98,-6.066 26.672,-6.223C26.363,-6.379 26.008,-6.457 25.605,-6.457C25.402,-6.457 25.212,-6.436 25.034,-6.393C24.856,-6.35 24.695,-6.289 24.551,-6.211C24.434,-6.148 24.324,-6.075 24.223,-5.991C24.121,-5.907 24.027,-5.811 23.941,-5.701L23.883,-6.34L22.488,-6.34L22.488,2.438ZM26.578,-3.234L26.578,-3.111C26.578,-2.838 26.553,-2.58 26.502,-2.338C26.451,-2.096 26.371,-1.883 26.262,-1.699C26.152,-1.516 26.01,-1.37 25.834,-1.263C25.658,-1.155 25.449,-1.102 25.207,-1.102C25.055,-1.102 24.915,-1.118 24.788,-1.151C24.661,-1.185 24.551,-1.23 24.457,-1.289C24.359,-1.352 24.272,-1.426 24.196,-1.512C24.12,-1.598 24.055,-1.693 24,-1.799L24,-4.529C24.059,-4.646 24.129,-4.748 24.211,-4.834C24.293,-4.92 24.387,-4.994 24.492,-5.057C24.586,-5.107 24.691,-5.146 24.809,-5.174C24.926,-5.201 25.055,-5.215 25.195,-5.215C25.441,-5.215 25.651,-5.164 25.825,-5.063C25.999,-4.961 26.143,-4.82 26.256,-4.641C26.365,-4.461 26.446,-4.25 26.499,-4.008C26.552,-3.766 26.578,-3.508 26.578,-3.234Z" style="fill:rgb(186,97,73);fill-rule:nonzero;"/>
        </g>
        <g transform="matrix(12.1243,0,0,12.1243,-9.16424,95.6206)">
            <path d="M29.432,-3.229L29.432,-3.105C29.432,-2.641 29.498,-2.212 29.631,-1.819C29.764,-1.427 29.959,-1.086 30.217,-0.797C30.467,-0.508 30.776,-0.282 31.146,-0.12C31.515,0.042 31.936,0.123 32.408,0.123C32.877,0.123 33.295,0.042 33.662,-0.12C34.029,-0.282 34.34,-0.508 34.594,-0.797C34.844,-1.086 35.035,-1.427 35.168,-1.819C35.301,-2.212 35.367,-2.641 35.367,-3.105L35.367,-3.229C35.367,-3.689 35.301,-4.116 35.168,-4.509C35.035,-4.901 34.844,-5.242 34.594,-5.531C34.336,-5.82 34.023,-6.047 33.656,-6.211C33.289,-6.375 32.869,-6.457 32.396,-6.457C31.928,-6.457 31.51,-6.375 31.143,-6.211C30.775,-6.047 30.467,-5.82 30.217,-5.531C29.959,-5.242 29.764,-4.901 29.631,-4.509C29.498,-4.116 29.432,-3.689 29.432,-3.229ZM30.943,-3.105L30.943,-3.229C30.943,-3.498 30.972,-3.753 31.028,-3.993C31.085,-4.233 31.172,-4.445 31.289,-4.629C31.406,-4.816 31.557,-4.963 31.74,-5.068C31.924,-5.174 32.143,-5.227 32.396,-5.227C32.654,-5.227 32.875,-5.174 33.059,-5.068C33.242,-4.963 33.393,-4.816 33.51,-4.629C33.623,-4.445 33.708,-4.233 33.765,-3.993C33.821,-3.753 33.85,-3.498 33.85,-3.229L33.85,-3.105C33.85,-2.828 33.821,-2.568 33.765,-2.326C33.708,-2.084 33.623,-1.873 33.51,-1.693C33.393,-1.506 33.242,-1.359 33.059,-1.254C32.875,-1.148 32.658,-1.096 32.408,-1.096C32.15,-1.096 31.929,-1.148 31.743,-1.254C31.558,-1.359 31.406,-1.506 31.289,-1.693C31.172,-1.873 31.085,-2.084 31.028,-2.326C30.972,-2.568 30.943,-2.828 30.943,-3.105Z" style="fill:rgb(186,97,73);fill-rule:nonzero;"/>
        </g>
    </g>
</svg>
