<?xml version="1.0" encoding="UTF-8" standalone="no"?>
<!DOCTYPE svg PUBLIC "-//W3C//DTD SVG 1.1//EN" "http://www.w3.org/Graphics/SVG/1.1/DTD/svg11.dtd">
<svg width="100%" height="100%" viewBox="0 0 33 33" version="1.1" xmlns="http://www.w3.org/2000/svg" xmlnsXlink="http://www.w3.org/1999/xlink" xmlSpace="preserve" xmlnsSerif="http://www.serif.com/" style="fill-rule:evenodd;clip-rule:evenodd;stroke-linejoin:round;stroke-miterlimit:2;">
    <g transform="matrix(1,0,0,1,-1714.49,-256.838)">
        <path d="M1747.08,256.838L1746.98,270.498L1733.65,270.265L1738.6,265.313C1736.86,263.57 1734.68,262.517 1732.42,262.182C1728.97,261.599 1725.3,262.652 1722.64,265.313C1718.24,269.717 1718.24,276.868 1722.64,281.272C1727.05,285.676 1734.2,285.676 1738.6,281.272C1739.85,280.026 1740.74,278.561 1741.24,276.986L1746.28,277.075C1745.63,279.872 1744.2,282.52 1742.03,284.698C1735.73,290.993 1725.51,290.993 1719.22,284.698C1712.92,278.403 1712.92,268.182 1719.22,261.887C1723.85,257.253 1730.61,256.03 1736.37,258.232C1738.43,259.004 1740.37,260.227 1742.03,261.887L1747.08,256.838Z" style="fill:white;"/>
    </g>
</svg>
